PathFileType	4	(X/Y/Z)	jw_hip_rstar.trc	
DataRate	CameraRate	NumFrames	NumMarkers	Units	OrigDataRate	OrigDataStartFrame	OrigNumFrames	
120.00	120.00	38	8	mm	120.00	1236	1647	
Frame#	Time	RAsis			LAsis			RPsis			LPsis			RThighSuperior			RThighInferior			RThighLateral			RPatella			
		X1	Y1	Z1	X2	Y2	Z2	X3	Y3	Z3	X4	Y4	Z4	X5	Y5	Z5	X6	Y6	Z6	X7	Y7	Z7	X8	Y8	Z8	

1236	10.292	-396.17474	189.70996	1044.83810	-146.10672	154.64827	981.28088	-247.51360	386.45001	1030.30320	-193.28246	370.97089	1019.76690	-446.02417	301.89023	833.11493	-461.64716	252.70284	590.64270	-442.48019	203.84132	686.61176	-413.14441	248.03452	481.08304 
1237	10.300	-396.39975	190.56306	1044.52580	-146.16121	154.98271	981.15045	-247.19667	386.66110	1029.87550	-192.70966	371.18329	1019.87160	-446.20850	299.64352	832.70361	-461.89755	246.43510	590.89172	-441.93671	199.38257	687.61121	-413.45731	240.45531	481.61862 
1238	10.308	-396.58908	191.48221	1044.16600	-146.14348	155.35501	981.07568	-247.50266	386.72882	1029.14760	-192.82761	371.18451	1018.62380	-446.58389	297.23053	832.58124	-462.25400	240.29379	591.35712	-441.59146	194.83997	688.67096	-413.96738	232.84392	482.36539 
1239	10.317	-396.64740	192.20615	1043.85220	-146.16542	155.76698	980.92059	-246.52942	387.45416	1028.99690	-192.17610	371.98093	1018.65470	-447.32565	295.02887	832.48108	-462.66159	234.02118	591.88428	-441.17654	190.44621	689.76501	-414.46930	225.33513	483.29007 
1240	10.325	-396.58463	192.73247	1043.52090	-146.02196	156.07126	980.90942	-246.17406	387.78360	1028.63930	-191.74100	372.46582	1018.70190	-446.99948	292.50024	832.50543	-463.10046	227.70871	592.76453	-440.80072	185.95935	690.91870	-414.88370	217.56105	484.57440 
1241	10.333	-396.46307	193.28270	1043.03550	-145.78210	156.44835	980.92261	-246.01015	388.15466	1028.38060	-191.79764	372.78046	1018.02940	-447.43665	289.93597	832.45435	-463.61996	221.70833	593.54803	-440.37704	181.58783	692.22638	-414.53497	210.11244	486.08035 
1242	10.342	-396.45654	193.65027	1042.62170	-145.50671	156.88828	980.88904	-246.17599	388.42618	1027.61710	-191.81264	373.16550	1017.63330	-448.09598	287.36298	832.79669	-463.99072	215.29803	594.59235	-440.06537	177.13533	693.59424	-415.11710	202.61404	487.58661 
1243	10.350	-396.26804	194.03854	1042.11680	-145.21741	157.39749	980.88202	-247.52568	388.08292	1026.22380	-190.89116	374.06470	1017.79470	-448.77924	284.96497	832.96368	-464.59164	209.19148	595.55670	-439.62885	172.68771	695.08612	-415.14960	194.75510	488.06882 
1244	10.358	-396.11258	194.16489	1041.71840	-144.97655	157.90096	980.84515	-247.54874	388.68201	1025.63310	-190.99284	374.36981	1017.37200	-449.33942	282.24960	833.15533	-465.09195	203.06441	596.70972	-439.27097	168.33746	696.46021	-415.78409	187.32262	489.63495 
1245	10.367	-395.90634	194.25246	1041.29430	-144.62234	158.41641	980.77020	-246.55840	389.30359	1025.82760	-191.60141	374.38168	1016.77760	-449.80667	279.62436	833.17609	-465.41681	196.72078	597.88751	-438.77795	163.95634	697.90741	-416.43738	179.74384	491.40396 
1246	10.375	-395.64124	194.18030	1040.78050	-144.26808	158.72917	980.74255	-247.76881	389.07449	1024.42030	-191.24474	375.30087	1016.49150	-450.44470	276.85669	833.37384	-465.62805	190.77495	598.84381	-438.21933	159.58972	699.21075	-416.98633	172.41629	493.04837 
1247	10.383	-395.37982	194.12128	1040.29520	-143.91455	158.98856	980.76202	-248.24248	389.22159	1023.81470	-191.55019	375.62891	1016.34390	-450.92773	274.16919	833.47986	-465.83881	184.66637	599.97107	-437.54498	155.31189	700.49353	-417.19351	165.23238	494.72275 
1248	10.392	-395.14636	194.08177	1039.66300	-143.54381	159.23805	980.69965	-248.73985	389.34509	1023.31640	-191.82919	375.88110	1015.91640	-451.24335	271.33417	833.50244	-465.92862	178.54854	600.92346	-436.91821	151.23843	701.63580	-417.57288	158.14087	496.31540 
1249	10.400	-395.01495	193.94051	1039.13730	-143.16403	159.47493	980.62970	-248.77466	389.66476	1022.18090	-192.00551	376.10001	1015.02620	-451.52374	268.56726	833.41699	-465.96310	172.91776	601.96411	-436.06793	147.12129	702.74445	-418.01917	151.34456	498.02783 
1250	10.408	-394.81964	193.70250	1038.50870	-142.73941	159.67604	980.46472	-249.01424	389.87213	1021.43850	-192.20818	376.30219	1014.39090	-451.58035	265.81912	833.29431	-465.73306	167.06874	602.84888	-435.17212	143.11137	703.78735	-418.01556	144.48843	499.75958 
1251	10.417	-394.55084	193.43611	1037.79520	-142.33235	159.93376	980.19238	-249.32013	390.03616	1020.61180	-192.51611	376.50449	1013.66630	-451.73691	263.15411	833.13361	-465.41049	161.38191	603.71259	-434.13129	139.26399	704.75934	-417.86642	137.86520	501.45691 
1252	10.425	-394.49225	193.26035	1037.22050	-141.83081	160.20232	979.98236	-249.76695	390.11435	1020.01700	-193.01306	376.87723	1013.52940	-452.01111	260.53784	832.99280	-464.96234	156.07245	604.75708	-433.13828	135.47697	705.62256	-417.56628	131.77373	502.77634 
1253	10.433	-394.30991	193.05093	1036.59840	-141.43547	160.46452	979.82715	-250.18883	390.20401	1019.15230	-193.23537	377.06241	1013.04960	-451.93475	257.69513	832.63617	-464.25604	150.88545	605.61420	-431.83865	131.68391	706.73645	-417.17084	125.50618	504.41541 
1254	10.442	-394.02533	192.69191	1035.93190	-141.12727	160.67804	979.68274	-250.74059	390.34381	1018.30150	-193.73036	377.26910	1012.30300	-451.48669	254.57645	832.10651	-463.25269	145.65913	606.55164	-430.44009	127.99124	707.66034	-416.11862	119.36713	506.21915 
1255	10.450	-393.83569	192.34000	1035.40550	-140.80345	160.95993	979.60638	-251.06534	390.49600	1017.23470	-194.08267	377.38602	1011.49450	-451.37436	251.87370	832.53662	-462.06564	140.69385	607.54785	-428.96414	124.44478	708.55615	-415.32684	113.68612	507.87347 
1256	10.458	-393.80164	192.12807	1035.06230	-140.50296	161.18884	979.50171	-251.67587	390.65085	1016.38820	-194.38528	377.59583	1010.86290	-451.18015	249.23743	832.41620	-461.03329	135.84375	609.01355	-427.34299	121.13033	709.49133	-413.76260	107.90733	509.25897 
1257	10.467	-393.82758	191.94965	1034.74000	-140.31604	161.44460	979.48938	-251.91757	390.72699	1015.29230	-194.77100	377.75394	1010.10130	-451.12967	246.33264	832.42413	-459.35364	130.86371	609.91180	-425.52826	117.61568	710.56641	-412.31049	102.45996	511.01297 
1258	10.475	-393.85620	191.67027	1034.41270	-139.79488	161.11264	979.76135	-252.37128	390.79599	1014.32640	-195.23181	377.86865	1009.36340	-449.58893	243.19598	832.61127	-457.33627	125.85709	610.71155	-423.73355	114.08915	711.65747	-410.40665	96.79394	512.54993 
1259	10.483	-393.94785	191.38840	1034.11610	-139.42085	160.73575	980.11224	-252.93810	390.85352	1013.70290	-195.79912	377.96158	1008.73820	-448.94931	240.16296	832.38910	-455.16122	121.20393	611.69324	-421.64612	110.80283	712.63336	-408.15448	91.36922	514.13000 
1260	10.492	-394.13351	191.10144	1033.93700	-139.16089	160.67567	980.34552	-253.44530	390.90695	1012.86020	-196.18149	378.02277	1008.15620	-448.99368	237.72862	832.72614	-452.98373	116.55854	612.69141	-419.44968	107.49586	713.68848	-406.10791	86.09274	515.83435 
1261	10.500	-394.34384	190.87808	1033.81750	-139.02229	160.69684	980.45709	-253.89703	390.95941	1011.82100	-196.63084	378.14478	1007.50130	-448.53137	235.20604	832.93146	-450.66125	111.93901	613.76062	-417.24277	104.26905	714.72034	-403.96011	80.91578	517.81580 
1262	10.508	-394.53268	190.68254	1033.74900	-138.89726	160.67101	980.59753	-254.30901	391.09317	1010.99400	-197.00139	378.29395	1006.75920	-448.18149	232.47110	833.07910	-448.31857	107.47778	614.99237	-414.82727	101.33472	715.94800	-401.77435	75.71083	519.66986 
1263	10.517	-394.82654	190.48320	1033.78580	-138.97293	160.74492	980.74628	-254.92778	391.07227	1010.07130	-197.51411	378.35153	1006.01660	-447.83475	229.95346	833.53497	-446.02341	103.15968	616.16180	-412.48212	98.21162	716.90320	-399.73215	70.90952	521.56934 
1264	10.525	-395.13992	190.30719	1033.90660	-139.06084	160.81912	980.88165	-255.51396	390.96967	1009.30630	-198.15379	378.34341	1005.28000	-446.18460	226.36340	832.98450	-443.85443	99.12825	617.38708	-410.36737	95.48459	718.27435	-397.77304	66.30071	523.48584 
1265	10.533	-395.42691	190.14404	1034.09670	-139.28439	160.80258	981.14240	-256.01505	390.96832	1008.64650	-198.66869	378.42084	1004.67110	-446.41525	224.46118	834.35297	-441.77878	95.20809	618.80914	-408.13074	92.81168	719.23871	-396.02246	61.61982	525.47540 
1266	10.542	-395.70316	190.00906	1034.41810	-139.50200	160.88248	981.34644	-256.54645	391.06763	1007.81100	-199.23546	378.52579	1003.94850	-445.94278	221.96609	835.18604	-439.90115	91.27706	620.27960	-405.79196	90.01492	720.61609	-394.17664	57.03318	527.70074 
1267	10.550	-396.00754	189.96533	1034.80990	-139.76295	160.94435	981.58008	-257.02164	391.09912	1006.89650	-199.67099	378.56070	1003.29730	-445.97482	219.49525	836.12048	-438.15485	87.62016	621.82178	-403.80948	87.80680	721.81830	-392.68872	52.79420	529.98053 
1268	10.558	-396.33719	189.91753	1035.25450	-139.99892	161.06749	981.73682	-257.56833	391.08740	1006.15730	-200.09088	378.66602	1002.55240	-444.68307	216.81258	836.77606	-436.55325	83.96472	623.51874	-401.86081	85.54601	723.09747	-391.27985	48.65708	532.28967 
1269	10.567	-396.67908	189.85332	1035.67400	-140.20027	161.18816	981.83685	-258.34207	391.07462	1005.41590	-200.60753	378.71658	1001.73080	-445.03616	214.50671	837.39374	-435.19531	80.44044	625.15765	-400.07019	83.27942	724.35059	-390.15817	44.61688	534.70947 
1270	10.575	-396.95200	189.80347	1036.01310	-140.43640	161.26373	981.98785	-258.82684	391.16159	1004.62430	-201.17314	378.83658	1000.97120	-445.21429	212.32069	838.17407	-433.87115	77.02026	626.80426	-398.52722	81.11086	725.71228	-389.21716	40.81378	536.90118 
1271	10.583	-397.20209	189.79036	1036.30090	-140.64178	161.39281	982.14996	-259.27731	391.22943	1003.73340	-201.68443	378.96341	1000.36270	-444.93701	210.28685	838.79059	-432.85516	73.79968	628.58813	-397.37140	79.09428	727.08295	-388.29001	36.92339	539.38104 
1272	10.592	-397.39359	189.83759	1036.52440	-140.91232	161.44930	982.27472	-259.80191	391.32928	1002.94930	-202.17516	379.02496	999.72961	-445.08630	208.38556	839.55560	-432.01035	70.66610	630.28448	-396.40140	77.20470	728.19739	-387.51682	33.29699	541.71033 
1273	10.600	-397.61179	189.94608	1036.76790	-141.22165	161.57199	982.41589	-260.32382	391.44620	1002.30170	-202.64850	379.18060	998.95734	-445.45517	206.89717	840.40234	-431.29492	67.74759	632.00122	-395.51010	75.33650	729.77673	-387.09976	29.70148	544.36310 
